<?xml version="1.0" ?><svg style="enable-background:new 70 50 120 150;" version="1.1" viewBox="68 48 120 150" xml:space="preserve" xmlns="http://www.w3.org/2000/svg" xmlns:xlink="http://www.w3.org/1999/xlink"><style type="text/css">
	.st1{fill:#4B687F;}
	.st2{fill:#122b40;}
	.st3{fill:#337ab7;}
</style><g id="Layer_2"></g><g id="Layer_1"><g><g><g></g></g><g><path class="st3" d="M128.00005,191.70174h-0.0001C100.38574,191.70174,78,169.31599,78,141.70178v-23.38143     c0-7.01016,5.68286-12.69302,12.69302-12.69302h74.61396c7.01016,0,12.69302,5.68286,12.69302,12.69302v23.38143     C178,169.31599,155.61426,191.70174,128.00005,191.70174z"/></g><g><g><path class="st1" d="M161.17999,87.48846v18.13989h-14.64996V87.48846c0-4.9502-1.93005-9.61011-5.43005-13.11011      S132.95001,68.95843,128,68.95843c-10.21997,0-18.53003,8.30981-18.53003,18.53003v18.13989H94.82001V87.48846      c0-18.30005,14.88-33.19019,33.17999-33.19019c8.87,0,17.20001,3.46021,23.46997,9.73023      C157.72998,70.28826,161.17999,78.61834,161.17999,87.48846z"/></g></g><g><g><path class="st2" d="M121.28416,145.52612c-0.15281,0.57207-0.23509,1.17155-0.23509,1.79063v15.11261      c0,3.83986,3.11107,6.95093,6.95094,6.95093c3.83986,0,6.95094-3.11107,6.95094-6.95093v-15.11261      c0-0.61908-0.08229-1.21857-0.23509-1.79063c2.89948-2.08449,4.78415-5.48944,4.78415-9.33322      c0-6.35144-5.14856-11.49999-11.5-11.49999c-6.35145,0-11.5,5.14855-11.5,11.49999      C116.5,140.03668,118.38467,143.44164,121.28416,145.52612z"/></g></g><g><rect class="st2" height="7.57007" width="14.64996" x="94.82001" y="98.05828"/></g><g><rect class="st2" height="7.57007" width="14.64996" x="146.53003" y="98.05828"/></g></g></g></svg>