<?xml version="1.0" ?><!DOCTYPE svg  PUBLIC '-//W3C//DTD SVG 1.1//EN'  'http://www.w3.org/Graphics/SVG/1.1/DTD/svg11.dtd'><svg enable-background="new 0 0 154.107 154.107" height="154.107" id="Layer_1" overflow="visible" version="1.1" viewBox="0 0 154.107 154.107" width="154.107" xml:space="preserve" xmlns="http://www.w3.org/2000/svg" xmlns:xlink="http://www.w3.org/1999/xlink"><g id="icon"><circle cx="77.054" cy="77.054" fill="#E27E35" r="77.054"/><path d="M86.966,98.328c4.933-1.129,9.693-3.078,14.064-5.828c3.311-2.094,4.316-6.472,2.224-9.789   c-2.094-3.325-6.465-4.327-9.782-2.237c-9.926,6.239-22.691,6.232-32.617,0c-3.325-2.089-7.689-1.087-9.782,2.237   c-2.093,3.311-1.088,7.695,2.223,9.789c4.371,2.75,9.125,4.699,14.058,5.828l-13.517,13.531c-2.777,2.777-2.777,7.258,0,10.028   c1.389,1.382,3.201,2.079,5.007,2.079c1.819,0,3.625-0.697,5.021-2.079l13.305-13.299l13.305,13.299   c2.777,2.777,7.252,2.777,10.029,0c2.777-2.771,2.777-7.265,0-10.028L86.966,98.328 M77.17,44.334   c5.534,0,10.028,4.498,10.028,10.032c0,5.521-4.494,10.019-10.028,10.019c-5.521,0-10.035-4.498-10.035-10.019   C67.135,48.832,71.649,44.334,77.17,44.334L77.17,44.334z M77.17,78.569c13.354,0,24.209-10.863,24.209-24.203   c0-13.367-10.855-24.229-24.209-24.229c-13.36,0-24.216,10.863-24.216,24.216S63.81,78.569,77.17,78.569z" fill="#FFFFFF"/></g></svg>